<?xml version="1.0" encoding="utf-8"?>
<!-- Generator: Adobe Illustrator 23.0.1, SVG Export Plug-In . SVG Version: 6.00 Build 0)  -->
<svg version="1.1"
	 id="Calque_1" image-rendering="optimizeQuality" text-rendering="geometricPrecision" shape-rendering="geometricPrecision"
	 xmlns="http://www.w3.org/2000/svg" xmlns:xlink="http://www.w3.org/1999/xlink" x="0px" y="0px" viewBox="0 0 8152 8192"
	 style="enable-background:new 0 0 8152 8192;" xml:space="preserve">
<path d="M2782,0c144,0,260.7,116.7,260.7,260.7S2926,521.4,2782,521.4H521.4V2742c0,144-116.7,260.7-260.7,260.7
	C116.7,3002.7,0,2885.9,0,2742V260.7C0,116.7,116.7,0,260.7,0H2782z M5370,521.4c-144,0-260.7-116.7-260.7-260.7S5226.1,0,5370,0
	h2521.3c144,0,260.7,116.7,260.7,260.7V2742c0,144-116.7,260.7-260.7,260.7s-260.7-116.7-260.7-260.7V521.4H5370L5370,521.4z
	 M5370,8192c-144,0-260.7-116.7-260.7-260.7s116.7-260.7,260.7-260.7h2260.6V5450.1c0-144,116.7-260.7,260.7-260.7
	c144,0,260.7,116.7,260.7,260.7v2481.3c0,144-116.7,260.7-260.7,260.7H5370L5370,8192z M2782,7670.6c144,0,260.7,116.7,260.7,260.7
	S2926,8192,2782,8192H260.7C116.8,8192,0,8075.3,0,7931.3V5450.1c0-144,116.7-260.7,260.7-260.7s260.7,116.7,260.7,260.7v2220.6
	H2782z"/>
</svg>
